<?xml version="1.0" encoding="utf-8"?>
<!-- Generator: Adobe Illustrator 24.1.2, SVG Export Plug-In . SVG Version: 6.00 Build 0)  -->
<svg version="1.1" id="Layer_1" xmlns="http://www.w3.org/2000/svg" xmlns:xlink="http://www.w3.org/1999/xlink" x="0px" y="0px"
	 viewBox="0 0 200 200" style="enable-background:new 0 0 200 200;" xml:space="preserve">
<style type="text/css">
	.st0{opacity:0.997;fill-rule:evenodd;clip-rule:evenodd;fill:#54595D;enable-background:new    ;}
	.st1{fill-rule:evenodd;clip-rule:evenodd;fill:#54595D;}
	.st2{opacity:0.455;fill-rule:evenodd;clip-rule:evenodd;fill:#54595D;enable-background:new    ;}
	.st3{opacity:1.200000e-02;fill-rule:evenodd;clip-rule:evenodd;fill:#54595D;enable-background:new    ;}
	.st4{opacity:0.612;fill-rule:evenodd;clip-rule:evenodd;fill:#54595D;enable-background:new    ;}
	.st5{opacity:0.404;fill-rule:evenodd;clip-rule:evenodd;fill:#54595D;enable-background:new    ;}
</style>
<g>
	<g>
		<path class="st0" d="M105.3,2.6c15-2.2,23.7,4.1,26.1,18.9c-2.1,14.6-10.5,20.7-25.2,18.4C95.2,35.2,90.8,27,93.2,15.2
			C95.5,9.2,99.6,5,105.3,2.6z"/>
	</g>
	<g>
		<path class="st1" d="M127.6,190.3c0.2,1.3-0.2,2.4-1,3.4c18.7,0.5,37.4,0.7,56.1,0.5c0,1.6,0,3.2,0,4.8c-54.9,0-109.6,0-164.5,0
			c0-1.9,0-3.9,0-5.8c20,0.2,40,0,60-0.5c-1.5-9.8-2.2-19.5-1.9-29.5c0.4-9.6-0.3-19-1.9-28.1c-0.9-5.4-1.2-10.9-1-16.4
			c-0.3-5.1,0-10.1,1-15c-0.8-1.9-2.1-3.4-3.9-4.4c-4.8-5.3-9.2-11.1-13.1-17.4c-1-4.6,0-8.8,2.9-12.6c5.5-10.1,11.8-19.5,18.9-28.5
			c11.9-5.8,20.5-2.7,25.6,9.2c0.3,20,0.7,40,1,60C118.3,135.3,125.5,162,127.6,190.3z M97.6,144.8c4.1,14.5,7.9,29,11.6,43.5
			c0,1.3,0,2.6,0,3.9c-1.8-0.3-3.5,0-4.8,1c-2.9,0-5.8,0-8.7,0c0-3.6,0-7.1,0-10.6C96.3,170,96.9,157.4,97.6,144.8z"/>
	</g>
	<g>
		<path class="st1" d="M82.1,65.5c0.5,0.1,0.9,0.4,1,1c-2,3.6-3.7,7.3-4.8,11.1c2.6,4.7,5,9.4,7.3,14c-4.2-4.2-7.5-8.8-10.2-14
			C77.4,73.4,79.7,69.4,82.1,65.5z"/>
	</g>
	<g>
		<path class="st2" d="M70.5,99.3c1.7,1,3.1,2.4,3.9,4.4c-1,4.9-1.3,9.9-1,15C72.9,112.2,71.9,105.8,70.5,99.3z"/>
	</g>
	<g>
		<path class="st3" d="M97.6,144.8c-0.7,12.6-1.3,25.2-1.9,37.7c-0.2-13.8,0-27.8,0.5-41.6C96.9,142.1,97.4,143.5,97.6,144.8z"/>
	</g>
	<g>
		<path class="st4" d="M74.3,135.1c1.6,9.1,2.3,18.5,1.9,28.1C75.1,154,74.4,144.7,74.3,135.1z"/>
	</g>
	<g>
		<path class="st5" d="M109.2,188.4c1,1.4,1.3,3,1,4.8c-1.9,0-3.9,0-5.8,0c1.4-1,3-1.3,4.8-1C109.2,191,109.2,189.6,109.2,188.4z"/>
	</g>
	<g>
		<path class="st1" d="M127.6,190.3c0.9,0.7,1.2,1.6,1,2.9c18.2-0.3,36.3,0,54.2,1c-18.7,0.2-37.4,0-56.1-0.5
			C127.4,192.7,127.8,191.5,127.6,190.3z"/>
	</g>
</g>
</svg>
